<mxfile host="app.diagrams.net" agent="Mozilla/5.0 (Windows NT 10.0; Win64; x64) AppleWebKit/537.36 (KHTML, like Gecko) Chrome/126.0.0.0 YaBrowser/24.7.0.0 Safari/537.36" version="24.8.2">
  <diagram name="Страница — 1" id="s1_SfXAWNudBJ4wVnNPU">
    <mxGraphModel dx="1500" dy="810" grid="1" gridSize="10" guides="1" tooltips="1" connect="1" arrows="1" fold="1" page="1" pageScale="1" pageWidth="3300" pageHeight="4681" math="0" shadow="0">
      <root>
        <mxCell id="0" />
        <mxCell id="1" parent="0" />
        <mxCell id="gBUoncTOH3T_YVV0iS3T-1" value="Кот не поел с утра" style="ellipse;whiteSpace=wrap;html=1;" vertex="1" parent="1">
          <mxGeometry x="850" y="330" width="120" height="80" as="geometry" />
        </mxCell>
        <mxCell id="gBUoncTOH3T_YVV0iS3T-2" value="Кот убежал из дома" style="ellipse;whiteSpace=wrap;html=1;" vertex="1" parent="1">
          <mxGeometry x="650" y="480" width="120" height="80" as="geometry" />
        </mxCell>
        <mxCell id="gBUoncTOH3T_YVV0iS3T-3" value="Кот уснул, забыв про еду" style="ellipse;whiteSpace=wrap;html=1;" vertex="1" parent="1">
          <mxGeometry x="845" y="480" width="130" height="90" as="geometry" />
        </mxCell>
        <mxCell id="gBUoncTOH3T_YVV0iS3T-4" value="Еда оказалась испорченной" style="ellipse;whiteSpace=wrap;html=1;" vertex="1" parent="1">
          <mxGeometry x="1050" y="485" width="120" height="80" as="geometry" />
        </mxCell>
        <mxCell id="gBUoncTOH3T_YVV0iS3T-5" value="" style="endArrow=classic;html=1;rounded=0;entryX=0.5;entryY=0;entryDx=0;entryDy=0;exitX=0;exitY=0.5;exitDx=0;exitDy=0;" edge="1" parent="1" source="gBUoncTOH3T_YVV0iS3T-1" target="gBUoncTOH3T_YVV0iS3T-2">
          <mxGeometry width="50" height="50" relative="1" as="geometry">
            <mxPoint x="660" y="400" as="sourcePoint" />
            <mxPoint x="800" y="290" as="targetPoint" />
            <Array as="points">
              <mxPoint x="710" y="370" />
            </Array>
          </mxGeometry>
        </mxCell>
        <mxCell id="gBUoncTOH3T_YVV0iS3T-6" value="0.5" style="text;html=1;align=center;verticalAlign=middle;whiteSpace=wrap;rounded=0;" vertex="1" parent="1">
          <mxGeometry x="740" y="340" width="60" height="30" as="geometry" />
        </mxCell>
        <mxCell id="gBUoncTOH3T_YVV0iS3T-7" value="" style="endArrow=classic;html=1;rounded=0;exitX=0.5;exitY=1;exitDx=0;exitDy=0;entryX=0.5;entryY=0;entryDx=0;entryDy=0;" edge="1" parent="1" source="gBUoncTOH3T_YVV0iS3T-1" target="gBUoncTOH3T_YVV0iS3T-3">
          <mxGeometry width="50" height="50" relative="1" as="geometry">
            <mxPoint x="880" y="530" as="sourcePoint" />
            <mxPoint x="930" y="480" as="targetPoint" />
          </mxGeometry>
        </mxCell>
        <mxCell id="gBUoncTOH3T_YVV0iS3T-8" value="0.3" style="text;html=1;align=center;verticalAlign=middle;whiteSpace=wrap;rounded=0;" vertex="1" parent="1">
          <mxGeometry x="900" y="430" width="60" height="30" as="geometry" />
        </mxCell>
        <mxCell id="gBUoncTOH3T_YVV0iS3T-9" value="" style="endArrow=classic;html=1;rounded=0;entryX=0.5;entryY=0;entryDx=0;entryDy=0;exitX=1;exitY=0.5;exitDx=0;exitDy=0;" edge="1" parent="1" source="gBUoncTOH3T_YVV0iS3T-1" target="gBUoncTOH3T_YVV0iS3T-4">
          <mxGeometry width="50" height="50" relative="1" as="geometry">
            <mxPoint x="880" y="530" as="sourcePoint" />
            <mxPoint x="930" y="480" as="targetPoint" />
            <Array as="points">
              <mxPoint x="1110" y="370" />
            </Array>
          </mxGeometry>
        </mxCell>
        <mxCell id="gBUoncTOH3T_YVV0iS3T-10" value="0.2" style="text;html=1;align=center;verticalAlign=middle;whiteSpace=wrap;rounded=0;" vertex="1" parent="1">
          <mxGeometry x="1010" y="340" width="60" height="30" as="geometry" />
        </mxCell>
        <mxCell id="gBUoncTOH3T_YVV0iS3T-11" value="Кот застрял на дереве" style="ellipse;whiteSpace=wrap;html=1;" vertex="1" parent="1">
          <mxGeometry x="460" y="405" width="120" height="80" as="geometry" />
        </mxCell>
        <mxCell id="gBUoncTOH3T_YVV0iS3T-12" value="Кот пошёл охотиться на мышей" style="ellipse;whiteSpace=wrap;html=1;" vertex="1" parent="1">
          <mxGeometry x="450" y="570" width="140" height="90" as="geometry" />
        </mxCell>
        <mxCell id="gBUoncTOH3T_YVV0iS3T-13" value="" style="endArrow=classic;html=1;rounded=0;entryX=1;entryY=0.5;entryDx=0;entryDy=0;exitX=0.5;exitY=1;exitDx=0;exitDy=0;" edge="1" parent="1" source="gBUoncTOH3T_YVV0iS3T-2" target="gBUoncTOH3T_YVV0iS3T-12">
          <mxGeometry width="50" height="50" relative="1" as="geometry">
            <mxPoint x="880" y="530" as="sourcePoint" />
            <mxPoint x="930" y="480" as="targetPoint" />
            <Array as="points">
              <mxPoint x="710" y="615" />
            </Array>
          </mxGeometry>
        </mxCell>
        <mxCell id="gBUoncTOH3T_YVV0iS3T-14" value="0.5" style="text;html=1;align=center;verticalAlign=middle;whiteSpace=wrap;rounded=0;" vertex="1" parent="1">
          <mxGeometry x="640" y="590" width="60" height="30" as="geometry" />
        </mxCell>
        <mxCell id="gBUoncTOH3T_YVV0iS3T-15" value="" style="endArrow=classic;html=1;rounded=0;exitX=0.5;exitY=0;exitDx=0;exitDy=0;entryX=1;entryY=0.5;entryDx=0;entryDy=0;" edge="1" parent="1" source="gBUoncTOH3T_YVV0iS3T-2" target="gBUoncTOH3T_YVV0iS3T-11">
          <mxGeometry width="50" height="50" relative="1" as="geometry">
            <mxPoint x="880" y="530" as="sourcePoint" />
            <mxPoint x="930" y="480" as="targetPoint" />
            <Array as="points">
              <mxPoint x="710" y="445" />
            </Array>
          </mxGeometry>
        </mxCell>
        <mxCell id="gBUoncTOH3T_YVV0iS3T-16" value="0.5" style="text;html=1;align=center;verticalAlign=middle;whiteSpace=wrap;rounded=0;" vertex="1" parent="1">
          <mxGeometry x="620" y="405" width="60" height="30" as="geometry" />
        </mxCell>
        <mxCell id="gBUoncTOH3T_YVV0iS3T-17" value="Проснулся от голода" style="ellipse;whiteSpace=wrap;html=1;" vertex="1" parent="1">
          <mxGeometry x="730" y="600" width="120" height="80" as="geometry" />
        </mxCell>
        <mxCell id="gBUoncTOH3T_YVV0iS3T-18" value="Проснулся, но решил поиграть" style="ellipse;whiteSpace=wrap;html=1;" vertex="1" parent="1">
          <mxGeometry x="950" y="600" width="120" height="80" as="geometry" />
        </mxCell>
        <mxCell id="gBUoncTOH3T_YVV0iS3T-19" value="" style="endArrow=classic;html=1;rounded=0;entryX=0.5;entryY=0;entryDx=0;entryDy=0;exitX=0;exitY=0.5;exitDx=0;exitDy=0;" edge="1" parent="1" source="gBUoncTOH3T_YVV0iS3T-3" target="gBUoncTOH3T_YVV0iS3T-17">
          <mxGeometry width="50" height="50" relative="1" as="geometry">
            <mxPoint x="880" y="530" as="sourcePoint" />
            <mxPoint x="930" y="480" as="targetPoint" />
            <Array as="points">
              <mxPoint x="790" y="525" />
            </Array>
          </mxGeometry>
        </mxCell>
        <mxCell id="gBUoncTOH3T_YVV0iS3T-20" value="" style="endArrow=classic;html=1;rounded=0;entryX=0.5;entryY=0;entryDx=0;entryDy=0;exitX=1;exitY=0.5;exitDx=0;exitDy=0;" edge="1" parent="1" source="gBUoncTOH3T_YVV0iS3T-3" target="gBUoncTOH3T_YVV0iS3T-18">
          <mxGeometry width="50" height="50" relative="1" as="geometry">
            <mxPoint x="880" y="530" as="sourcePoint" />
            <mxPoint x="930" y="480" as="targetPoint" />
            <Array as="points">
              <mxPoint x="1010" y="525" />
            </Array>
          </mxGeometry>
        </mxCell>
        <mxCell id="gBUoncTOH3T_YVV0iS3T-21" value="0.5" style="text;html=1;align=center;verticalAlign=middle;whiteSpace=wrap;rounded=0;" vertex="1" parent="1">
          <mxGeometry x="785" y="500" width="60" height="30" as="geometry" />
        </mxCell>
        <mxCell id="gBUoncTOH3T_YVV0iS3T-22" value="0.5" style="text;html=1;align=center;verticalAlign=middle;whiteSpace=wrap;rounded=0;" vertex="1" parent="1">
          <mxGeometry x="970" y="500" width="60" height="30" as="geometry" />
        </mxCell>
        <mxCell id="gBUoncTOH3T_YVV0iS3T-24" value="Кот попытался поесть, но не смог" style="ellipse;whiteSpace=wrap;html=1;" vertex="1" parent="1">
          <mxGeometry x="1240" y="420" width="120" height="80" as="geometry" />
        </mxCell>
        <mxCell id="gBUoncTOH3T_YVV0iS3T-25" value="Кот начал требовать новую еду" style="ellipse;whiteSpace=wrap;html=1;" vertex="1" parent="1">
          <mxGeometry x="1235" y="550" width="130" height="80" as="geometry" />
        </mxCell>
        <mxCell id="gBUoncTOH3T_YVV0iS3T-26" value="" style="endArrow=classic;html=1;rounded=0;entryX=0;entryY=0.5;entryDx=0;entryDy=0;exitX=0.5;exitY=0;exitDx=0;exitDy=0;" edge="1" parent="1" source="gBUoncTOH3T_YVV0iS3T-4" target="gBUoncTOH3T_YVV0iS3T-24">
          <mxGeometry width="50" height="50" relative="1" as="geometry">
            <mxPoint x="880" y="530" as="sourcePoint" />
            <mxPoint x="930" y="480" as="targetPoint" />
            <Array as="points">
              <mxPoint x="1110" y="460" />
            </Array>
          </mxGeometry>
        </mxCell>
        <mxCell id="gBUoncTOH3T_YVV0iS3T-27" value="" style="endArrow=classic;html=1;rounded=0;entryX=0;entryY=0.5;entryDx=0;entryDy=0;exitX=0.5;exitY=1;exitDx=0;exitDy=0;" edge="1" parent="1" source="gBUoncTOH3T_YVV0iS3T-4" target="gBUoncTOH3T_YVV0iS3T-25">
          <mxGeometry width="50" height="50" relative="1" as="geometry">
            <mxPoint x="1110" y="570" as="sourcePoint" />
            <mxPoint x="930" y="480" as="targetPoint" />
            <Array as="points">
              <mxPoint x="1110" y="590" />
            </Array>
          </mxGeometry>
        </mxCell>
        <mxCell id="gBUoncTOH3T_YVV0iS3T-28" value="0.2" style="text;html=1;align=center;verticalAlign=middle;whiteSpace=wrap;rounded=0;" vertex="1" parent="1">
          <mxGeometry x="1150" y="430" width="60" height="30" as="geometry" />
        </mxCell>
        <mxCell id="gBUoncTOH3T_YVV0iS3T-29" value="0.8" style="text;html=1;align=center;verticalAlign=middle;whiteSpace=wrap;rounded=0;" vertex="1" parent="1">
          <mxGeometry x="1140" y="560" width="60" height="30" as="geometry" />
        </mxCell>
        <mxCell id="gBUoncTOH3T_YVV0iS3T-30" value="Кот мяукает, ожидая помощи" style="ellipse;whiteSpace=wrap;html=1;" vertex="1" parent="1">
          <mxGeometry x="260" y="400" width="120" height="80" as="geometry" />
        </mxCell>
        <mxCell id="gBUoncTOH3T_YVV0iS3T-31" value="" style="endArrow=classic;html=1;rounded=0;entryX=1;entryY=0.5;entryDx=0;entryDy=0;exitX=0;exitY=0.438;exitDx=0;exitDy=0;exitPerimeter=0;" edge="1" parent="1" source="gBUoncTOH3T_YVV0iS3T-11" target="gBUoncTOH3T_YVV0iS3T-30">
          <mxGeometry width="50" height="50" relative="1" as="geometry">
            <mxPoint x="770" y="530" as="sourcePoint" />
            <mxPoint x="820" y="480" as="targetPoint" />
          </mxGeometry>
        </mxCell>
        <mxCell id="gBUoncTOH3T_YVV0iS3T-32" value="1.0" style="text;html=1;align=center;verticalAlign=middle;whiteSpace=wrap;rounded=0;" vertex="1" parent="1">
          <mxGeometry x="400" y="405" width="60" height="30" as="geometry" />
        </mxCell>
        <mxCell id="gBUoncTOH3T_YVV0iS3T-33" value="Поймал мышь и поел" style="ellipse;whiteSpace=wrap;html=1;" vertex="1" parent="1">
          <mxGeometry x="290" y="700" width="120" height="80" as="geometry" />
        </mxCell>
        <mxCell id="gBUoncTOH3T_YVV0iS3T-34" value="Не поймал мышь, вернулся голодным" style="ellipse;whiteSpace=wrap;html=1;" vertex="1" parent="1">
          <mxGeometry x="580" y="700" width="120" height="80" as="geometry" />
        </mxCell>
        <mxCell id="gBUoncTOH3T_YVV0iS3T-35" value="" style="endArrow=classic;html=1;rounded=0;entryX=0.5;entryY=0;entryDx=0;entryDy=0;exitX=0.018;exitY=0.606;exitDx=0;exitDy=0;exitPerimeter=0;" edge="1" parent="1" source="gBUoncTOH3T_YVV0iS3T-12" target="gBUoncTOH3T_YVV0iS3T-33">
          <mxGeometry width="50" height="50" relative="1" as="geometry">
            <mxPoint x="830" y="570" as="sourcePoint" />
            <mxPoint x="880" y="520" as="targetPoint" />
            <Array as="points">
              <mxPoint x="350" y="625" />
            </Array>
          </mxGeometry>
        </mxCell>
        <mxCell id="gBUoncTOH3T_YVV0iS3T-36" value="" style="endArrow=classic;html=1;rounded=0;entryX=0.5;entryY=0;entryDx=0;entryDy=0;exitX=1;exitY=0.5;exitDx=0;exitDy=0;" edge="1" parent="1" source="gBUoncTOH3T_YVV0iS3T-12" target="gBUoncTOH3T_YVV0iS3T-34">
          <mxGeometry width="50" height="50" relative="1" as="geometry">
            <mxPoint x="830" y="570" as="sourcePoint" />
            <mxPoint x="880" y="520" as="targetPoint" />
            <Array as="points">
              <mxPoint x="640" y="615" />
            </Array>
          </mxGeometry>
        </mxCell>
        <mxCell id="gBUoncTOH3T_YVV0iS3T-37" value="0.5" style="text;html=1;align=center;verticalAlign=middle;whiteSpace=wrap;rounded=0;" vertex="1" parent="1">
          <mxGeometry x="590" y="640" width="60" height="30" as="geometry" />
        </mxCell>
        <mxCell id="gBUoncTOH3T_YVV0iS3T-38" value="0.5" style="text;html=1;align=center;verticalAlign=middle;whiteSpace=wrap;rounded=0;" vertex="1" parent="1">
          <mxGeometry x="370" y="600" width="60" height="30" as="geometry" />
        </mxCell>
        <mxCell id="gBUoncTOH3T_YVV0iS3T-39" value="Пошёл искать еду" style="ellipse;whiteSpace=wrap;html=1;" vertex="1" parent="1">
          <mxGeometry x="730" y="710" width="120" height="80" as="geometry" />
        </mxCell>
        <mxCell id="gBUoncTOH3T_YVV0iS3T-40" value="" style="endArrow=classic;html=1;rounded=0;entryX=0.5;entryY=0;entryDx=0;entryDy=0;exitX=0.5;exitY=1;exitDx=0;exitDy=0;" edge="1" parent="1" source="gBUoncTOH3T_YVV0iS3T-17" target="gBUoncTOH3T_YVV0iS3T-39">
          <mxGeometry width="50" height="50" relative="1" as="geometry">
            <mxPoint x="830" y="570" as="sourcePoint" />
            <mxPoint x="880" y="520" as="targetPoint" />
          </mxGeometry>
        </mxCell>
        <mxCell id="gBUoncTOH3T_YVV0iS3T-41" value="1.0" style="text;html=1;align=center;verticalAlign=middle;whiteSpace=wrap;rounded=0;" vertex="1" parent="1">
          <mxGeometry x="780" y="680" width="60" height="30" as="geometry" />
        </mxCell>
        <mxCell id="gBUoncTOH3T_YVV0iS3T-42" value="Понял, что голоден, и пошёл искать еду" style="ellipse;whiteSpace=wrap;html=1;" vertex="1" parent="1">
          <mxGeometry x="1090" y="725" width="130" height="90" as="geometry" />
        </mxCell>
        <mxCell id="gBUoncTOH3T_YVV0iS3T-43" value="Забыл про еду и продолжил играть" style="ellipse;whiteSpace=wrap;html=1;" vertex="1" parent="1">
          <mxGeometry x="950" y="730" width="120" height="80" as="geometry" />
        </mxCell>
        <mxCell id="gBUoncTOH3T_YVV0iS3T-44" value="" style="endArrow=classic;html=1;rounded=0;entryX=0.5;entryY=0;entryDx=0;entryDy=0;exitX=0.5;exitY=1;exitDx=0;exitDy=0;" edge="1" parent="1" source="gBUoncTOH3T_YVV0iS3T-18" target="gBUoncTOH3T_YVV0iS3T-43">
          <mxGeometry width="50" height="50" relative="1" as="geometry">
            <mxPoint x="950" y="740" as="sourcePoint" />
            <mxPoint x="1000" y="690" as="targetPoint" />
          </mxGeometry>
        </mxCell>
        <mxCell id="gBUoncTOH3T_YVV0iS3T-45" value="" style="endArrow=classic;html=1;rounded=0;entryX=0.5;entryY=0;entryDx=0;entryDy=0;exitX=1;exitY=0.5;exitDx=0;exitDy=0;" edge="1" parent="1" source="gBUoncTOH3T_YVV0iS3T-18" target="gBUoncTOH3T_YVV0iS3T-42">
          <mxGeometry width="50" height="50" relative="1" as="geometry">
            <mxPoint x="950" y="740" as="sourcePoint" />
            <mxPoint x="1000" y="690" as="targetPoint" />
            <Array as="points">
              <mxPoint x="1155" y="640" />
            </Array>
          </mxGeometry>
        </mxCell>
        <mxCell id="gBUoncTOH3T_YVV0iS3T-46" value="0.7" style="text;html=1;align=center;verticalAlign=middle;whiteSpace=wrap;rounded=0;" vertex="1" parent="1">
          <mxGeometry x="1080" y="640" width="60" height="30" as="geometry" />
        </mxCell>
        <mxCell id="gBUoncTOH3T_YVV0iS3T-47" value="0.3" style="text;html=1;align=center;verticalAlign=middle;whiteSpace=wrap;rounded=0;" vertex="1" parent="1">
          <mxGeometry x="960" y="690" width="60" height="30" as="geometry" />
        </mxCell>
        <mxCell id="gBUoncTOH3T_YVV0iS3T-48" value="Остался голодным" style="ellipse;whiteSpace=wrap;html=1;" vertex="1" parent="1">
          <mxGeometry x="1410" y="420" width="120" height="80" as="geometry" />
        </mxCell>
        <mxCell id="gBUoncTOH3T_YVV0iS3T-49" value="" style="endArrow=classic;html=1;rounded=0;entryX=0;entryY=0.5;entryDx=0;entryDy=0;exitX=1;exitY=0.5;exitDx=0;exitDy=0;" edge="1" parent="1" source="gBUoncTOH3T_YVV0iS3T-24" target="gBUoncTOH3T_YVV0iS3T-48">
          <mxGeometry width="50" height="50" relative="1" as="geometry">
            <mxPoint x="1090" y="560" as="sourcePoint" />
            <mxPoint x="1140" y="510" as="targetPoint" />
          </mxGeometry>
        </mxCell>
        <mxCell id="gBUoncTOH3T_YVV0iS3T-50" value="1.0" style="text;html=1;align=center;verticalAlign=middle;whiteSpace=wrap;rounded=0;" vertex="1" parent="1">
          <mxGeometry x="1350" y="430" width="60" height="30" as="geometry" />
        </mxCell>
        <mxCell id="gBUoncTOH3T_YVV0iS3T-51" value="Хозяин накормил его" style="ellipse;whiteSpace=wrap;html=1;" vertex="1" parent="1">
          <mxGeometry x="1410" y="545" width="140" height="90" as="geometry" />
        </mxCell>
        <mxCell id="gBUoncTOH3T_YVV0iS3T-52" value="" style="endArrow=classic;html=1;rounded=0;entryX=0;entryY=0.5;entryDx=0;entryDy=0;exitX=1;exitY=0.5;exitDx=0;exitDy=0;" edge="1" parent="1" source="gBUoncTOH3T_YVV0iS3T-25" target="gBUoncTOH3T_YVV0iS3T-51">
          <mxGeometry width="50" height="50" relative="1" as="geometry">
            <mxPoint x="1090" y="560" as="sourcePoint" />
            <mxPoint x="1140" y="510" as="targetPoint" />
          </mxGeometry>
        </mxCell>
        <mxCell id="gBUoncTOH3T_YVV0iS3T-53" value="1.0" style="text;html=1;align=center;verticalAlign=middle;whiteSpace=wrap;rounded=0;" vertex="1" parent="1">
          <mxGeometry x="1350" y="560" width="60" height="30" as="geometry" />
        </mxCell>
      </root>
    </mxGraphModel>
  </diagram>
</mxfile>
